<svg width="319" height="320" viewBox="0 0 319 320" fill="none" xmlns="http://www.w3.org/2000/svg">
<path fill-rule="evenodd" clip-rule="evenodd" d="M120.162 2.63862C118.344 4.45762 117.526 6.33361 117.526 8.68861C117.526 10.5656 118.193 13.3916 119.009 14.9686C119.903 16.6996 121.847 18.2836 123.909 18.9636C125.787 19.5836 128.496 19.7976 129.928 19.4376C131.361 19.0786 133.657 17.4486 135.03 15.8166C136.604 13.9456 137.527 11.6126 137.527 9.50261C137.527 7.36162 136.594 5.04762 134.938 3.07962C132.712 0.434618 131.678 0.00261452 127.573 0.00261452C123.748 0.00261452 122.275 0.526616 120.162 2.63862ZM148.657 2.61961C146.603 4.47061 145.251 6.79561 144.883 9.11561C144.404 12.1376 144.777 13.2416 147.168 15.8716C149.046 17.9356 151.228 19.1616 153.527 19.4416C155.452 19.6756 157.835 19.8976 158.822 19.9356C159.81 19.9726 161.721 21.1076 163.072 22.4576C164.741 24.1256 165.527 26.0296 165.527 28.4016C165.527 30.6486 164.668 32.8896 163.114 34.6966C160.7 37.5026 160.699 37.5026 116.364 37.5476C83.1315 37.5806 71.4655 37.9016 69.7865 38.8266C68.5555 39.5066 66.8675 41.3766 66.0365 42.9826C65.2065 44.5886 64.5265 46.6226 64.5265 47.5026C64.5265 48.3826 65.1845 50.3746 65.9895 51.9306C66.7945 53.4876 68.2565 55.1326 69.2395 55.5876C70.2225 56.0436 77.4035 56.6606 85.1985 56.9586C98.4415 57.4666 99.5395 57.6616 101.948 59.9266C103.691 61.5656 104.526 63.4026 104.526 65.5956C104.526 67.3796 104.246 69.5676 103.905 70.4576C103.563 71.3486 102.011 72.7346 100.454 73.5396C98.1445 74.7346 91.7405 75.0026 65.5105 75.0026C43.8275 75.0026 32.6855 75.3656 31.2105 76.1196C30.0095 76.7336 28.2495 78.1966 27.2985 79.3696C26.3485 80.5426 25.5605 82.9576 25.5485 84.7366C25.5335 86.9226 26.4745 89.0296 28.4515 91.2366C31.3765 94.5026 31.3765 94.5026 46.2015 94.5986C54.3555 94.6516 71.2845 94.7636 83.8215 94.8486C106.597 95.0026 106.619 95.0046 109.071 97.4576C110.832 99.2176 111.526 101.006 111.526 103.783C111.526 106.537 110.859 108.282 109.213 109.829C106.965 111.94 106.161 112.005 81.4625 112.059C64.5175 112.097 54.8585 112.514 52.5275 113.309C50.1915 114.107 48.3955 115.685 47.1215 118.063C45.8865 120.368 45.4415 122.527 45.8575 124.187C46.2115 125.596 47.3655 127.82 48.4225 129.127C50.2875 131.433 50.8765 131.518 68.5245 132.003C86.7045 132.503 86.7045 132.503 89.1155 135.309C90.4505 136.863 91.5265 139.394 91.5265 140.982C91.5265 142.608 90.4055 145.182 88.9375 146.926C86.3485 150.003 86.3485 150.003 69.8415 150.003C56.2365 150.003 52.8395 150.296 50.5165 151.668C48.9655 152.584 47.2085 154.405 46.6115 155.715C46.0145 157.025 45.5265 159.194 45.5265 160.534C45.5265 161.875 46.8385 164.441 48.4435 166.237C51.3595 169.503 51.3595 169.503 86.5325 170.003C121.706 170.503 121.706 170.503 123.616 172.864C124.747 174.262 125.526 176.775 125.526 179.025C125.526 182.041 124.892 183.36 122.45 185.414C119.421 187.963 119.127 188.003 103.372 188.003C87.3725 188.003 87.3725 188.003 84.4495 190.926C82.2855 193.09 81.5265 194.798 81.5265 197.503C81.5265 200.208 82.2855 201.916 84.4495 204.08C87.3725 207.003 87.3725 207.003 109.825 207.003C122.174 207.003 133.73 207.294 135.505 207.649C137.639 208.076 139.375 209.346 140.627 211.399C141.668 213.106 142.521 215.55 142.523 216.83C142.525 218.11 141.212 220.472 139.604 222.08C136.747 224.937 136.444 225.003 126.252 225.003C120.517 225.003 114.395 225.502 112.646 226.111C110.867 226.731 108.818 228.472 107.996 230.062C107.188 231.625 106.526 234.067 106.526 235.489C106.526 236.91 107.231 239.149 108.092 240.463C108.953 241.778 111.045 243.337 112.741 243.928C114.437 244.519 121.342 245.003 128.087 245.003C140.348 245.003 140.348 245.003 143.036 248.198C145.212 250.783 145.617 252.059 145.158 254.888C144.846 256.81 143.723 259.251 142.663 260.312C141.354 261.621 138.647 262.456 134.234 262.913C130.66 263.283 127.062 264.144 126.239 264.827C125.416 265.51 124.192 267.396 123.521 269.017C122.85 270.638 122.566 273.027 122.892 274.327C123.219 275.627 124.632 277.836 126.034 279.237C127.629 280.832 130.24 282.033 133.025 282.451C136.104 282.912 138.094 283.91 139.499 285.695C140.615 287.113 141.527 289.687 141.527 291.415C141.527 293.144 140.839 295.54 139.997 296.741C139.124 297.988 136.874 299.212 134.747 299.597C132.701 299.967 129.803 300.89 128.307 301.647C126.81 302.404 125.122 303.889 124.556 304.948C123.989 306.006 123.526 308.376 123.526 310.215C123.526 312.054 124.184 314.496 124.987 315.643C125.79 316.789 127.703 318.246 129.237 318.879C131.231 319.702 144.437 319.956 175.527 319.767C219.027 319.503 219.027 319.503 219.296 296.753C219.565 274.003 219.564 274.003 237.886 274.003C250.813 274.003 257.595 273.586 260.917 272.586C263.507 271.807 268.044 269.342 271.001 267.11C275.102 264.014 277.167 261.448 279.702 256.302C283.026 249.554 283.026 249.554 283.918 224.779C284.81 200.003 284.81 200.003 298.603 200.003C306.189 200.003 313.539 199.569 314.934 199.038C316.367 198.493 317.745 196.981 318.102 195.561C318.469 194.099 317.691 189.171 316.242 183.775C314.872 178.676 310.129 161.228 305.702 145.003C301.039 127.917 296.969 110.664 296.031 104.003C295.135 97.6386 292.85 87.8126 290.917 82.0026C288.995 76.2276 285.592 68.1276 283.355 64.0026C281.118 59.8776 276.781 53.1276 273.719 49.0026C270.656 44.8776 265.423 38.7666 262.089 35.4236C258.754 32.0796 252.387 26.6496 247.938 23.3576C243.489 20.0646 235.915 15.4486 231.107 13.0996C226.3 10.7506 219.141 7.72861 215.197 6.38361C211.254 5.03861 204.202 3.23661 199.527 2.37861C194.784 1.50761 182.37 0.579616 171.441 0.277616C151.855 -0.263384 151.856 -0.263389 148.657 2.61961ZM192.43 21.7526C193.599 22.7156 194.945 24.8886 195.422 26.5826C196.008 28.6606 195.867 30.6676 194.99 32.7536C194.275 34.4536 192.783 36.3306 191.674 36.9236C190.566 37.5176 188.033 38.0026 186.047 38.0026C183.547 38.0026 181.681 37.2476 179.982 35.5476C178.174 33.7416 177.527 32.0126 177.527 29.0026C177.527 25.9926 178.174 24.2636 179.982 22.4576C181.756 20.6826 183.527 20.0026 186.37 20.0026C188.641 20.0026 191.204 20.7426 192.43 21.7526ZM129.938 60.0796C131.361 61.7716 132.527 64.2766 132.527 65.6446C132.527 67.0136 132.003 69.1166 131.364 70.3186C130.724 71.5196 129.486 73.0506 128.614 73.7206C127.741 74.3906 125.318 74.9536 123.231 74.9706C120.507 74.9936 118.743 74.3096 116.981 72.5476C115.192 70.7596 114.526 69.0076 114.526 66.0886C114.526 63.0076 115.159 61.4976 117.267 59.5426C119.167 57.7816 121.132 57.0026 123.677 57.0026C126.549 57.0026 127.912 57.6726 129.938 60.0796ZM4.6435 77.6336C3.3625 78.5306 1.6815 80.7806 0.9075 82.6336C-0.3025 85.5306 -0.3025 86.4746 0.9075 89.3716C1.6815 91.2246 3.3625 93.4746 4.6435 94.3716C5.9235 95.2686 8.6055 96.0026 10.6025 96.0026C13.0565 96.0026 15.0795 95.2196 16.8405 93.5876C18.2735 92.2596 19.7375 90.0096 20.0945 88.5876C20.4515 87.1656 20.4515 84.8386 20.0945 83.4166C19.7375 81.9946 18.3585 79.7446 17.0315 78.4166C15.3215 76.7066 13.5025 76.0026 10.7945 76.0026C8.6915 76.0026 5.9235 76.7366 4.6435 77.6336ZM115.603 133.926C117.727 136.05 118.526 137.812 118.526 140.37C118.526 142.588 117.693 144.85 116.276 146.481C114.974 147.98 112.535 149.308 110.485 149.634C107.51 150.107 106.433 149.718 103.735 147.199C101.155 144.788 100.526 143.415 100.526 140.191C100.526 136.941 101.109 135.69 103.603 133.592C105.417 132.066 107.912 131.003 109.681 131.003C111.663 131.003 113.671 131.994 115.603 133.926ZM25.0265 149.957C23.9265 150.412 21.9115 151.984 20.5495 153.45C18.7605 155.375 18.0715 157.24 18.0715 160.162C18.0715 163.462 18.6695 164.742 21.3155 167.105C23.7705 169.3 25.5495 170.003 28.6415 170.003C31.9195 170.003 33.2955 169.391 35.6255 166.897C37.7365 164.637 38.5265 162.791 38.5265 160.12C38.5265 158.1 37.7925 155.4 36.8955 154.12C35.9985 152.839 33.7635 151.164 31.9275 150.397C30.0925 149.63 28.2385 149.032 27.8085 149.066C27.3785 149.101 26.1265 149.502 25.0265 149.957Z" fill="url(#paint0_linear_5_8)"/>
<defs>
<linearGradient id="paint0_linear_5_8" x1="-95" y1="-81" x2="367" y2="301" gradientUnits="userSpaceOnUse">
<stop stop-color="#00B2FF"/>
<stop offset="0.333333" stop-color="#53CBD3"/>
<stop offset="0.703125" stop-color="#DB00FF"/>
<stop offset="1" stop-color="#FF002E" stop-opacity="0"/>
</linearGradient>
</defs>
</svg>
